ply
format ascii 1.0
element vertex 8
property float x
property float y
property float z
property uchar red
property uchar green
property uchar blue
end_header
-20.0341758728027344 24.1521415710449219 90.118133544921875 101 153 0
-22.2398624420166016 10.6034917831420898 93.8718032836914062 101 153 0
-17.3110008239746094 19.2001991271972656 90.598968505859375 101 153 0
19.1536369323730469 -21.7325248718261719 93.4767913818359375 101 153 0
15.1571331024169922 55.2061004638671875 77.1709442138671875 101 153 0
-20.9216766357421875 19.8382949829101562 91.1090850830078125 101 153 0
-21.5965194702148438 13.8394641876220703 92.95233154296875 101 153 0
-13.2734670639038086 20.6955718994140625 89.529388427734375 101 153 0
