ply
format ascii 1.0
element vertex 13
property float x
property float y
property float z
property uchar red
property uchar green
property uchar blue
end_header
-10.1862010955810547 -0.945034027099609375 102.259552001953125 145 109 0
-27.9246234893798828 11.2797040939331055 92.1332778930664062 145 109 0
-15.763249397277832 35.3890914916992188 88.7537765502929688 145 109 0
-20.9010887145996094 1.69260597229003906 96.684539794921875 145 109 0
-16.6326904296875 0.473004996776580811 99.5578536987304688 145 109 0
-26.5601768493652344 4.95543384552001953 93.62957763671875 145 109 0
20.853363037109375 -11.1904983520507812 100.27178955078125 145 109 0
-4.75182390213012695 -1.81632602214813232 106.436126708984375 145 109 0
9.86794853210449219 -20.0596675872802734 98.8280029296875 145 109 0
6.91456079483032227 16.4362640380859375 109.307769775390625 145 109 0
-13.0577573776245117 18.2586421966552734 90.6429214477539062 145 109 0
-1.50800597667694092 12.2368106842041016 97.87921142578125 145 109 0
-11.711552619934082 19.706634521484375 91.2204132080078125 145 109 0
