ply
format ascii 1.0
element vertex 5
property float x
property float y
property float z
property uchar red
property uchar green
property uchar blue
end_header
13.8480672836303711 2.18904495239257812 104.904464721679688 118 136 0
6.99408483505249023 7.85481405258178711 104.146568298339844 118 136 0
7.29378890991210938 -18.5085163116455078 101.144729614257812 118 136 0
17.9250679016113281 -15.0799713134765625 102.195838928222656 118 136 0
21.3877544403076172 -4.46109676361083984 96.473114013671875 118 136 0
