ply
format ascii 1.0
element vertex 10
property float x
property float y
property float z
property uchar red
property uchar green
property uchar blue
end_header
17.8140697479248047 47.7809791564941406 79.6922683715820312 132 122 0
8.97533607482910156 53.4013557434082031 95.6186904907226562 132 122 0
8.59452247619628906 59.9518585205078125 87.400482177734375 132 122 0
20.2080154418945312 42.5677413940429688 85.270538330078125 132 122 0
11.2074031829833984 63.3393745422363281 82.889007568359375 132 122 0
8.83336830139160156 56.9228363037109375 91.089599609375 132 122 0
-3.5535891056060791 -58.5317535400390625 86.1796340942382812 132 122 0
-5.52362918853759766 -57.8992042541503906 85.9982833862304688 132 122 0
17.8994312286376953 50.4355354309082031 76.541351318359375 132 122 0
18.5478687286376953 45.9614982604980469 82.1673812866210938 132 122 0
