ply
format ascii 1.0
element vertex 9
property float x
property float y
property float z
property uchar red
property uchar green
property uchar blue
end_header
-20.0378398895263672 60.6344528198242188 77.536865234375 124 130 0
-18.1138858795166016 57.89306640625 76.9530029296875 124 130 0
-17.9935665130615234 60.1090164184570312 76.503509521484375 124 130 0
-15.9540367126464844 59.5479469299316406 75.85089111328125 124 130 0
-15.6389503479003906 57.1475715637207031 75.1035690307617188 124 130 0
-18.0388259887695312 -57.9345550537109375 78.3369216918945312 124 130 0
0.894945979118347168 10.1887702941894531 99.39666748046875 124 130 0
-54.6111946105957031 48.1001472473144531 58.4617500305175781 124 130 0
8.75644111633300781 6.44103097915649414 105.009262084960938 124 130 0
