ply
format ascii 1.0
element vertex 11
property float x
property float y
property float z
property uchar red
property uchar green
property uchar blue
end_header
-30.7949542999267578 61.2678756713867188 78.2909469604492188 47 207 0
-28.1884326934814453 61.2098236083984375 78.7035293579101562 47 207 0
-15.2207202911376953 78.7938308715820312 86.0506515502929688 47 207 0
-28.765777587890625 63.4901046752929688 78.9213027954101562 47 207 0
-32.0553665161132812 66.2795639038085938 78.3249282836914062 47 207 0
0.734591007232666016 61.9940414428710938 86.9951095581054688 47 207 0
-33.5450363159179688 69.8606796264648438 78.5985031127929688 47 207 0
-33.0501785278320312 72.325347900390625 78.9304656982421875 47 207 0
-18.7544441223144531 78.0657196044921875 84.9472808837890625 47 207 0
-15.6584854125976562 52.3761482238769531 74.5383834838867188 47 207 0
-32.5922508239746094 64.6020431518554688 78.3513870239257812 47 207 0
