ply
format ascii 1.0
element vertex 9
property float x
property float y
property float z
property uchar red
property uchar green
property uchar blue
end_header
18.0340538024902344 25.7661857604980469 105.752243041992188 129 125 0
19.310699462890625 25.8114719390869141 102.607589721679688 129 125 0
28.5516147613525391 -9.29042720794677734 87.7696914672851562 129 125 0
6.14829587936401367 14.5190496444702148 100.776191711425781 129 125 0
7.94578981399536133 14.1614818572998047 99.6050186157226562 129 125 0
18.3284587860107422 28.1402587890625 104.9466552734375 129 125 0
21.4496650695800781 25.7582225799560547 98.0253524780273438 129 125 0
27.8768863677978516 -10.4411392211914062 91.5106582641601562 129 125 0
20.9744625091552734 29.2572765350341797 86.5555191040039062 129 125 0
