ply
format ascii 1.0
element vertex 10
property float x
property float y
property float z
property uchar red
property uchar green
property uchar blue
end_header
6.15961217880249023 39.4346389770507812 110.240669250488281 138 116 0
6.38041305541992188 51.9202117919921875 99.43603515625 138 116 0
5.69495677947998047 46.0106353759765625 104.789497375488281 138 116 0
-53.6177787780761719 30.9282798767089844 68.59161376953125 138 116 0
23.4245510101318359 -11.2409801483154297 98.6409530639648438 138 116 0
11.5630655288696289 60.285858154296875 82.6473312377929688 138 116 0
-12.8751411437988281 -69.7851181030273438 37.1168708801269531 138 116 0
6.53634214401245117 42.3663291931152344 107.494087219238281 138 116 0
-6.19027090072631836 -7.49281597137451172 103.358711242675781 138 116 0
-4.69921493530273438 -5.5592951774597168 105.808921813964844 138 116 0
