ply
format ascii 1.0
element vertex 6
property float x
property float y
property float z
property uchar red
property uchar green
property uchar blue
end_header
22.7130889892578125 0.0878209993243217468 97.8271484375 155 99 0
35.616790771484375 1.3029780387878418 81.3998184204101562 155 99 0
32.5484771728515625 0.808655977249145508 85.1481399536132812 155 99 0
22.2841854095458984 32.9254989624023438 85.9976577758789062 155 99 0
21.5003223419189453 30.3723068237304688 85.5973739624023438 155 99 0
34.1869125366210938 -0.797273993492126465 83.598114013671875 155 99 0
