ply
format ascii 1.0
element vertex 5
property float x
property float y
property float z
property uchar red
property uchar green
property uchar blue
end_header
-36.2798080444335938 50.9386062622070312 71.5367889404296875 191 63 0
20.7093906402587891 -22.2494525909423828 91.6323318481445312 191 63 0
-7.19732809066772461 -35.065216064453125 91.9708328247070312 191 63 0
44.9687309265136719 -50.1208267211914062 56.4178276062011719 191 63 0
25.2350616455078125 -0.757740974426269531 94.9805679321289062 191 63 0
