ply
format ascii 1.0
element vertex 6
property float x
property float y
property float z
property uchar red
property uchar green
property uchar blue
end_header
-0.364861011505126953 -26.8733291625976562 95.8793792724609375 97 157 0
5.72723007202148438 -21.5449352264404297 98.1008224487304688 97 157 0
17.3667640686035156 52.7863616943359375 74.9220352172851562 97 157 0
1.48139500617980957 -56.4766273498535156 89.5462646484375 97 157 0
-19.9052886962890625 154.999160766601562 37.1685600280761719 97 157 0
9.65553092956542969 -60.4973716735839844 83.8295364379882812 97 157 0
