ply
format ascii 1.0
element vertex 5
property float x
property float y
property float z
property uchar red
property uchar green
property uchar blue
end_header
13.2768630981445312 15.4903850555419922 95.7913131713867188 163 91 0
30.3876247406005859 -2.19395589828491211 86.9785919189453125 163 91 0
51.3637008666992188 17.2252540588378906 75.9756011962890625 163 91 0
25.4868373870849609 -10.731104850769043 96.7736740112304688 163 91 0
11.6336345672607422 -53.2918663024902344 87.4877548217773438 163 91 0
