ply
format ascii 1.0
element vertex 5
property float x
property float y
property float z
property uchar red
property uchar green
property uchar blue
end_header
-10.9253768920898438 36.0842247009277344 92.9420166015625 120 134 0
-8.81462860107421875 26.5473957061767578 105.264823913574219 120 134 0
3.67715096473693848 32.7884864807128906 114.439231872558594 120 134 0
5.00173282623291016 19.0868740081787109 114.092521667480469 120 134 0
-5.62469577789306641 27.2088718414306641 109.16497802734375 120 134 0
