ply
format ascii 1.0
element vertex 8
property float x
property float y
property float z
property uchar red
property uchar green
property uchar blue
end_header
39.8063011169433594 10.846684455871582 82.752593994140625 173 81 0
37.7972640991210938 4.58063507080078125 80.7481155395507812 173 81 0
41.1795425415039062 2.95023989677429199 79.4091796875 173 81 0
-26.5054550170898438 57.0793113708496094 79.3109664916992188 173 81 0
-38.7267837524414062 76.5308990478515625 78.3008956909179688 173 81 0
-39.5560188293457031 77.5839309692382812 77.23809814453125 173 81 0
0.0468339994549751282 14.8441362380981445 99.5427780151367188 173 81 0
10.3403024673461914 -59.12457275390625 84.9777755737304688 173 81 0
