ply
format ascii 1.0
element vertex 7
property float x
property float y
property float z
property uchar red
property uchar green
property uchar blue
end_header
4.27891683578491211 37.2096138000488281 111.939895629882812 69 185 0
4.21854305267333984 42.3680877685546875 107.833175659179688 69 185 0
3.82726097106933594 44.1591949462890625 106.544548034667969 69 185 0
4.28268718719482422 48.910919189453125 102.31170654296875 69 185 0
27.4646701812744141 -7.36855602264404297 92.9205780029296875 69 185 0
26.4127788543701172 -7.70226812362670898 94.5688552856445312 69 185 0
-21.7969512939453125 81.54345703125 83.9272994995117188 69 185 0
