ply
format ascii 1.0
element vertex 28
property float x
property float y
property float z
property uchar red
property uchar green
property uchar blue
end_header
-39.0198974609375 55.1024055480957031 73.331756591796875 215 39 0
-37.7163734436035156 65.0790252685546875 76.1869277954101562 215 39 0
-46.8987884521484375 52.0241775512695312 63.7529945373535156 215 39 0
-51.9135894775390625 62.0081977844238281 64.1539230346679688 215 39 0
-42.2787551879882812 52.1161384582519531 67.8682861328125 215 39 0
-41.167144775390625 53.6235198974609375 69.0526504516601562 215 39 0
-51.0907173156738281 52.9982643127441406 61.0018501281738281 215 39 0
-35.6998176574707031 56.1275215148925781 76.0659561157226562 215 39 0
-44.2208786010742188 60.2517166137695312 69.5997772216796875 215 39 0
-37.7986412048339844 59.0961380004882812 74.8192214965820312 215 39 0
-42.4880447387695312 66.3870162963867188 73.8689651489257812 215 39 0
-54.6072158813476562 53.3939666748046875 58.1850700378417969 215 39 0
-40.3420524597167969 62.996002197265625 73.9002761840820312 215 39 0
-41.2802772521972656 58.00762939453125 71.2762069702148438 215 39 0
-45.8725814819335938 69.907501220703125 72.124969482421875 215 39 0
-40.0609474182128906 72.3647384643554688 77.3912200927734375 215 39 0
-52.6441726684570312 57.5015144348144531 61.2818183898925781 215 39 0
-43.0813446044921875 69.351043701171875 74.1341476440429688 215 39 0
-36.2422447204589844 60.1158599853515625 75.9694747924804688 215 39 0
-50.0933418273925781 64.3526687622070312 66.8831634521484375 215 39 0
-38.061309814453125 51.3503150939941406 70.7468948364257812 215 39 0
-40.3638420104980469 52.5403366088867188 70.1208267211914062 215 39 0
-46.3071632385253906 65.5121231079101562 70.60345458984375 215 39 0
-40.6097068786621094 50.4904518127441406 68.9061355590820312 215 39 0
-49.6604423522949219 56.7211189270019531 63.3597488403320312 215 39 0
-45.3275527954101562 56.6388816833496094 66.5645675659179688 215 39 0
-47.8379402160644531 62.6378898620605469 68.4541854858398438 215 39 0
-48.8315162658691406 60.968414306640625 66.506561279296875 215 39 0
