ply
format ascii 1.0
element vertex 9
property float x
property float y
property float z
property uchar red
property uchar green
property uchar blue
end_header
-7.23451614379882812 21.2652206420898438 94.8388671875 205 49 0
22.9736175537109375 -20.9893951416015625 90.75421142578125 205 49 0
13.1894626617431641 -3.46694493293762207 100.813514709472656 205 49 0
25.4387798309326172 -18.2928619384765625 90.680877685546875 205 49 0
10.0401172637939453 16.4042701721191406 98.536376953125 205 49 0
10.9898490905761719 14.9249343872070312 97.4959259033203125 205 49 0
65.9707260131835938 73.7744674682617188 36.5321311950683594 205 49 0
-20.2558155059814453 -63.0229225158691406 64.9410247802734375 205 49 0
18.2724494934082031 2.01527595520019531 101.641128540039062 205 49 0
