ply
format ascii 1.0
element vertex 10
property float x
property float y
property float z
property uchar red
property uchar green
property uchar blue
end_header
22.9683895111083984 5.69715023040771484 91.0960464477539062 123 131 0
20.7860069274902344 13.4624338150024414 87.5007171630859375 123 131 0
15.1511144638061523 13.2679653167724609 94.693145751953125 123 131 0
19.3692798614501953 11.4935617446899414 91.4259185791015625 123 131 0
17.5280323028564453 14.0869922637939453 90.8308792114257812 123 131 0
20.7205104827880859 4.56217718124389648 98.6098098754882812 123 131 0
1.30956196784973145 -34.2629508972167969 95.6433181762695312 123 131 0
18.3735065460205078 9.96138381958007812 94.7248764038085938 123 131 0
-4.90758800506591797 -39.730743408203125 94.4395370483398438 123 131 0
23.8044948577880859 31.5561408996582031 85.4979171752929688 123 131 0
