ply
format ascii 1.0
element vertex 5
property float x
property float y
property float z
property uchar red
property uchar green
property uchar blue
end_header
0.558435976505279541 -39.9083137512207031 96.368988037109375 111 143 0
26.0924835205078125 57.0590019226074219 76.0760345458984375 111 143 0
8.57541847229003906 62.5167236328125 85.419891357421875 111 143 0
9.81485462188720703 62.7082138061523438 84.25665283203125 111 143 0
-13.2803058624267578 26.3226661682128906 94.3893203735351562 111 143 0
