ply
format ascii 1.0
element vertex 8
property float x
property float y
property float z
property uchar red
property uchar green
property uchar blue
end_header
30.9094657897949219 60.4568328857421875 76.7219696044921875 141 113 0
33.9033432006835938 56.1593704223632812 77.3726348876953125 141 113 0
29.6176643371582031 63.6185951232910156 77.104766845703125 141 113 0
16.3897075653076172 -58.732574462890625 82.1168746948242188 141 113 0
29.2519359588623047 66.442596435546875 77.0037918090820312 141 113 0
37.9000396728515625 78.68316650390625 78.74200439453125 141 113 0
30.2675590515136719 56.7123641967773438 77.0292510986328125 141 113 0
26.6850185394287109 60.4489822387695312 76.242919921875 141 113 0
