ply
format ascii 1.0
element vertex 13
property float x
property float y
property float z
property uchar red
property uchar green
property uchar blue
end_header
-34.1600379943847656 57.7508926391601562 77.2530746459960938 235 19 0
-33.2812690734863281 59.5899620056152344 77.3729095458984375 235 19 0
-29.5315456390380859 78.2982559204101562 80.9928436279296875 235 19 0
-19.0703353881835938 -55.5418624877929688 79.6456680297851562 235 19 0
5.54245090484619141 151.775772094726562 50.0314178466796875 235 19 0
-34.5354766845703125 53.2167396545410156 71.7838973999023438 235 19 0
15.1827678680419922 151.970550537109375 47.0763320922851562 235 19 0
-21.7537860870361328 77.9478912353515625 83.9168243408203125 235 19 0
-31.2329158782958984 50.6754112243652344 73.5906982421875 235 19 0
-30.2563285827636719 51.3953857421875 74.0896453857421875 235 19 0
-34.0439300537109375 -50.1292457580566406 64.6988067626953125 235 19 0
-13.8918533325195312 57.2039794921875 74.4197311401367188 235 19 0
-11.9144926071166992 20.2128086090087891 94.235015869140625 235 19 0
