ply
format ascii 1.0
element vertex 7
property float x
property float y
property float z
property uchar red
property uchar green
property uchar blue
end_header
-3.24825310707092285 -51.7047843933105469 91.8875198364257812 80 174 0
-6.30858898162841797 -53.5830726623535156 88.4147872924804688 80 174 0
19.1732273101806641 57.4248886108398438 73.6302413940429688 80 174 0
-0.0590250007808208466 -48.9508552551269531 93.8628311157226562 80 174 0
-53.4197769165039062 126.89276123046875 37.0010261535644531 80 174 0
-10.3495416641235352 -55.8193702697753906 85.7200241088867188 80 174 0
-13.0167474746704102 -56.9999122619628906 83.8344345092773438 80 174 0
