ply
format ascii 1.0
element vertex 12
property float x
property float y
property float z
property uchar red
property uchar green
property uchar blue
end_header
21.7357063293457031 29.1848888397216797 92.627838134765625 169 85 0
20.1083583831787109 31.0559158325195312 93.0162811279296875 169 85 0
21.3451023101806641 28.3892440795898438 95.9854660034179688 169 85 0
17.0050773620605469 33.6988792419433594 97.7980117797851562 169 85 0
19.8570804595947266 30.6878795623779297 97.6929931640625 169 85 0
20.0007133483886719 31.7456398010253906 89.314605712890625 169 85 0
15.581782341003418 33.0972023010253906 104.979515075683594 169 85 0
16.4121818542480469 -7.27779388427734375 99.6773605346679688 169 85 0
14.0395364761352539 34.8177719116210938 106.068565368652344 169 85 0
17.5419406890869141 33.8533210754394531 94.1046905517578125 169 85 0
45.8518905639648438 74.7756271362304688 74.6734848022460938 169 85 0
17.9572296142578125 8.86884307861328125 97.096435546875 169 85 0
