ply
format ascii 1.0
element vertex 5
property float x
property float y
property float z
property uchar red
property uchar green
property uchar blue
end_header
12.1833610534667969 7.69611406326293945 102.378311157226562 234 20 0
12.0244865417480469 8.25128746032714844 100.8992919921875 234 20 0
6.73917913436889648 9.16834354400634766 101.807304382324219 234 20 0
-31.5495090484619141 53.3288536071777344 73.8843917846679688 234 20 0
-33.3928108215332031 54.4145088195800781 73.5620803833007812 234 20 0
