ply
format ascii 1.0
element vertex 10
property float x
property float y
property float z
property uchar red
property uchar green
property uchar blue
end_header
18.7136478424072266 16.4307422637939453 87.1041259765625 192 62 0
13.3011951446533203 3.96006298065185547 105.053070068359375 192 62 0
15.9337425231933594 15.318669319152832 91.8321456909179688 192 62 0
25.5723838806152344 0.215256005525588989 94.0240631103515625 192 62 0
23.4675235748291016 1.47994101047515869 96.6401901245117188 192 62 0
27.7282352447509766 0.0138109996914863586 89.8873062133789062 192 62 0
-11.890873908996582 22.1621646881103516 89.5279769897460938 192 62 0
7.53258323669433594 -5.50627279281616211 103.464767456054688 192 62 0
-8.70129871368408203 -7.96956920623779297 101.644241333007812 192 62 0
28.4681549072265625 0.528778016567230225 88.38409423828125 192 62 0
