ply
format ascii 1.0
element vertex 7
property float x
property float y
property float z
property uchar red
property uchar green
property uchar blue
end_header
-24.6139965057373047 14.8272857666015625 92.5146331787109375 98 156 0
-21.6530513763427734 7.17537403106689453 95.02984619140625 98 156 0
-19.8600082397460938 29.1572055816650391 88.8102035522460938 98 156 0
51.9900970458984375 126.868675231933594 36.8118400573730469 98 156 0
24.0281085968017578 27.611175537109375 83.9435806274414062 98 156 0
-24.7811603546142578 21.5246925354003906 90.288482666015625 98 156 0
-22.8344535827636719 25.4980506896972656 89.3466110229492188 98 156 0
