ply
format ascii 1.0
element vertex 18
property float x
property float y
property float z
property uchar red
property uchar green
property uchar blue
end_header
0.524766981601715088 49.8099708557128906 100.156410217285156 112 142 0
2.1798100471496582 43.6267013549804688 106.21905517578125 112 142 0
1.58802199363708496 47.143646240234375 102.977066040039062 112 142 0
23.8125457763671875 8.36983585357666016 87.9444198608398438 112 142 0
25.1457633972167969 11.6072216033935547 85.3071136474609375 112 142 0
21.5691375732421875 14.8797702789306641 85.9519882202148438 112 142 0
26.1071319580078125 3.58467006683349609 89.3321990966796875 112 142 0
23.7631263732910156 -6.22109413146972656 95.6816177368164062 112 142 0
-0.357941001653671265 60.39105224609375 87.7179794311523438 112 142 0
20.1088008880615234 3.43575310707092285 100.170700073242188 112 142 0
17.1003608703613281 6.77164697647094727 101.455986022949219 112 142 0
37.8268508911132812 15.9137611389160156 84.2679824829101562 112 142 0
0.761474013328552246 39.1598777770996094 109.08892822265625 112 142 0
29.4368801116943359 5.42000198364257812 86.2566909790039062 112 142 0
28.3616104125976562 10.6116361618041992 84.1912002563476562 112 142 0
24.72650146484375 -8.77873992919921875 97.1720428466796875 112 142 0
14.4636173248291016 -7.48445987701416016 101.698989868164062 112 142 0
14.0739707946777344 -5.82214498519897461 100.593948364257812 112 142 0
