ply
format ascii 1.0
element vertex 5
property float x
property float y
property float z
property uchar red
property uchar green
property uchar blue
end_header
33.1878852844238281 2.81278395652770996 84.2215118408203125 179 75 0
12.4961862564086914 62.4929847717285156 81.5238265991210938 179 75 0
5.63106584548950195 16.0483989715576172 107.639900207519531 179 75 0
19.0126132965087891 -55.3978118896484375 82.6894149780273438 179 75 0
16.0744667053222656 67.182464599609375 81.6092147827148438 179 75 0
