ply
format ascii 1.0
element vertex 11
property float x
property float y
property float z
property uchar red
property uchar green
property uchar blue
end_header
25.9860000610351562 20.8107013702392578 82.4552001953125 66 188 0
31.1706733703613281 24.7040157318115234 85.2918319702148438 66 188 0
50.1285820007324219 74.650970458984375 70.4449539184570312 66 188 0
10.6191644668579102 36.1537513732910156 109.729019165039062 66 188 0
34.1432609558105469 19.5672111511230469 85.061737060546875 66 188 0
26.3582305908203125 29.3312053680419922 85.259063720703125 66 188 0
34.8721427917480469 12.7119159698486328 83.5054855346679688 66 188 0
30.2925281524658203 15.4021186828613281 82.7507858276367188 66 188 0
24.8966712951660156 23.7083587646484375 82.757720947265625 66 188 0
28.8546886444091797 18.0675468444824219 82.6523513793945312 66 188 0
32.3074188232421875 11.1842737197875977 82.4859848022460938 66 188 0
