ply
format ascii 1.0
element vertex 36
property float x
property float y
property float z
property uchar red
property uchar green
property uchar blue
end_header
-12.3451271057128906 31.5625705718994141 90.6513748168945312 253 1 0
29.3486995697021484 79.880645751953125 81.892303466796875 253 1 0
9.42658615112304688 69.982269287109375 85.4749298095703125 253 1 0
38.0692062377929688 56.9459571838378906 76.77935791015625 253 1 0
10.3959627151489258 71.178741455078125 85.7662582397460938 253 1 0
12.7212209701538086 72.3775634765625 85.6107711791992188 253 1 0
33.1951789855957031 78.4228057861328125 79.8966751098632812 253 1 0
40.8309059143066406 65.5677871704101562 74.6825485229492188 253 1 0
37.1417121887207031 56.013427734375 76.924468994140625 253 1 0
37.2157135009765625 66.2441787719726562 76.063079833984375 253 1 0
39.477508544921875 68.159881591796875 75.528076171875 253 1 0
38.9767227172851562 62.8124885559082031 75.684478759765625 253 1 0
8.42544269561767578 65.1974716186523438 84.9157638549804688 253 1 0
40.4145126342773438 70.465972900390625 75.6295166015625 253 1 0
39.1562156677246094 77.2238082885742188 78.7343673706054688 253 1 0
39.8262481689453125 54.6202011108398438 75.4371414184570312 253 1 0
45.7776985168457031 45.5398292541503906 65.687286376953125 253 1 0
32.8356094360351562 69.6652679443359375 77.2882080078125 253 1 0
37.0143165588378906 60.7863388061523438 76.0981216430664062 253 1 0
39.0314292907714844 60.3225173950195312 75.5104522705078125 253 1 0
29.9752826690673828 68.6366424560546875 77.4466629028320312 253 1 0
18.0109806060791016 55.4630165100097656 73.38848876953125 253 1 0
35.393280029296875 70.8873825073242188 77.347381591796875 253 1 0
33.4993667602539062 71.9736480712890625 78.7156143188476562 253 1 0
37.9877204895019531 72.1562728881835938 77.2446975708007812 253 1 0
19.1154060363769531 62.1365737915039062 75.098358154296875 253 1 0
43.1519088745117188 71.3148880004882812 75.1617660522460938 253 1 0
43.3065757751464844 70.083892822265625 74.6904144287109375 253 1 0
19.6731967926025391 71.52142333984375 84.2851181030273438 253 1 0
18.6624202728271484 72.2526397705078125 84.8501434326171875 253 1 0
29.5181007385253906 71.8730621337890625 79.2675552368164062 253 1 0
20.3099555969238281 20.9653224945068359 87.0767288208007812 253 1 0
9.87620925903320312 17.4868526458740234 100.1912841796875 253 1 0
42.6416740417480469 75.0165786743164062 76.4806900024414062 253 1 0
43.0405120849609375 76.271820068359375 76.3484878540039062 253 1 0
-3.42073798179626465 18.4820556640625 96.4254608154296875 253 1 0
