ply
format ascii 1.0
element vertex 6
property float x
property float y
property float z
property uchar red
property uchar green
property uchar blue
end_header
-23.8879241943359375 49.3673782348632812 74.8285064697265625 37 217 0
-26.6624546051025391 58.4883956909179688 79.5060043334960938 37 217 0
-25.2727813720703125 60.5731048583984375 78.8465957641601562 37 217 0
20.6442375183105469 51.35223388671875 73.5581817626953125 37 217 0
-37.1762046813964844 75.3173065185546875 78.7605133056640625 37 217 0
-21.3893928527832031 50.5680961608886719 74.5153732299804688 37 217 0
