ply
format ascii 1.0
element vertex 7
property float x
property float y
property float z
property uchar red
property uchar green
property uchar blue
end_header
-15.1975126266479492 61.4209213256835938 76.21563720703125 255 0 0
-19.9911670684814453 66.1497116088867188 78.5935897827148438 255 0 0
-15.0605983734130859 58.5789260864257812 75.0362167358398438 255 0 0
-17.8364753723144531 65.1805419921875 77.7790679931640625 255 0 0
-23.0274639129638672 57.8816909790039062 78.901885986328125 255 0 0
-19.5395679473876953 56.7999000549316406 77.1348876953125 255 0 0
-21.8037548065185547 52.2490234375 74.5401992797851562 255 0 0
