ply
format ascii 1.0
element vertex 9
property float x
property float y
property float z
property uchar red
property uchar green
property uchar blue
end_header
32.3973312377929688 -51.7607574462890625 70.1346588134765625 206 48 0
28.3152751922607422 -55.9428787231445312 71.4592361450195312 206 48 0
20.164459228515625 -57.3191871643066406 80.2272796630859375 206 48 0
32.2970657348632812 -55.4834480285644531 67.3188400268554688 206 48 0
36.9214096069335938 -55.1806755065917969 62.2706031799316406 206 48 0
23.3576202392578125 -54.4228019714355469 79.058349609375 206 48 0
41.2451438903808594 -50.9418144226074219 61.2710762023925781 206 48 0
22.4073085784912109 -57.1286048889160156 77.6681289672851562 206 48 0
43.7431373596191406 -47.3945045471191406 60.857391357421875 206 48 0
