ply
format ascii 1.0
element vertex 5
property float x
property float y
property float z
property uchar red
property uchar green
property uchar blue
end_header
14.8364849090576172 -16.7792110443115234 103.029006958007812 94 160 0
4.68613195419311523 -6.92346286773681641 103.978057861328125 94 160 0
3.25496697425842285 -6.10943078994750977 104.3271484375 94 160 0
-4.9405817985534668 -9.08414459228515625 101.938125610351562 94 160 0
-6.99802923202514648 -9.72422981262207031 100.826026916503906 94 160 0
