ply
format ascii 1.0
element vertex 6
property float x
property float y
property float z
property uchar red
property uchar green
property uchar blue
end_header
32.7669410705566406 55.7020072937011719 76.9787826538085938 254 0 0
51.51239013671875 -45.7332916259765625 37.6273040771484375 254 0 0
11.4365711212158203 19.1184272766113281 104.738906860351562 254 0 0
19.9202804565429688 54.3199806213378906 72.5784072875976562 254 0 0
19.8375511169433594 74.9581680297851562 85.2771835327148438 254 0 0
29.2438068389892578 54.7277183532714844 76.8299636840820312 254 0 0
