ply
format ascii 1.0
element vertex 8
property float x
property float y
property float z
property uchar red
property uchar green
property uchar blue
end_header
2.47639703750610352 40.4156417846679688 109.057685852050781 135 119 0
-1.32801699638366699 -25.0679264068603516 97.207733154296875 135 119 0
2.92005395889282227 62.1576194763183594 87.8011398315429688 135 119 0
4.75223493576049805 59.6031913757324219 90.75628662109375 135 119 0
4.60247087478637695 62.5158500671386719 87.5190887451171875 135 119 0
44.0146102905273438 27.7454586029052734 80.1409835815429688 135 119 0
-59.5322799682617188 17.649078369140625 60.5894088745117188 135 119 0
17.4978485107421875 58.6201324462890625 74.0937347412109375 135 119 0
