ply
format ascii 1.0
element vertex 5
property float x
property float y
property float z
property uchar red
property uchar green
property uchar blue
end_header
-8.39077663421630859 17.5016098022460938 93.675811767578125 139 115 0
16.1448650360107422 -10.0920896530151367 102.311531066894531 139 115 0
16.017791748046875 57.8736915588378906 74.9379119873046875 139 115 0
3.04674005508422852 20.4122314453125 114.708091735839844 139 115 0
-12.4353666305541992 23.8799152374267578 98.6202392578125 139 115 0
