ply
format ascii 1.0
element vertex 12
property float x
property float y
property float z
property uchar red
property uchar green
property uchar blue
end_header
6.78926277160644531 -1.27628195285797119 105.519119262695312 229 25 0
9.18602752685546875 -0.950155973434448242 104.7894287109375 229 25 0
16.7662220001220703 -17.7002582550048828 101.728561401367188 229 25 0
12.9321680068969727 -1.005653977394104 103.7794189453125 229 25 0
16.8747024536132812 -1.00351905822753906 101.022590637207031 229 25 0
7.77895784378051758 -20.1857833862304688 98.895263671875 229 25 0
10.5726747512817383 -20.9302577972412109 97.3102340698242188 229 25 0
15.4449262619018555 -22.6558914184570312 94.4188385009765625 229 25 0
12.5762319564819336 -2.8112330436706543 101.7218017578125 229 25 0
9.9644012451171875 -2.30451798439025879 102.261749267578125 229 25 0
-0.242482006549835205 -6.41453409194946289 106.188545227050781 229 25 0
-26.3894557952880859 -53.8373374938964844 70.754364013671875 229 25 0
