ply
format ascii 1.0
element vertex 37
property float x
property float y
property float z
property uchar red
property uchar green
property uchar blue
end_header
-32.5743827819824219 56.6397171020507812 77.9531173706054688 144 110 0
-13.7330532073974609 75.7426300048828125 86.4676132202148438 144 110 0
-27.5407180786132812 70.7784957885742188 79.7337417602539062 144 110 0
-6.91324377059936523 70.462554931640625 85.40765380859375 144 110 0
-3.40862798690795898 68.00872802734375 84.9502334594726562 144 110 0
-12.0946254730224609 60.33734130859375 75.705810546875 144 110 0
-17.6629409790039062 69.9357070922851562 80.9996566772460938 144 110 0
-18.6796188354492188 68.5978927612304688 79.6725997924804688 144 110 0
-13.5635309219360352 69.2333984375 82.1531219482421875 144 110 0
-16.6291847229003906 65.9875640869140625 78.0843353271484375 144 110 0
-12.3938302993774414 70.12640380859375 84.04412841796875 144 110 0
-11.4208812713623047 71.1651992797851562 84.9981231689453125 144 110 0
-24.0022735595703125 69.5622406005859375 79.6837234497070312 144 110 0
-16.3576602935791016 69.6966476440429688 81.5840911865234375 144 110 0
2.20133090019226074 14.1418361663818359 100.175117492675781 144 110 0
3.94380307197570801 13.9961566925048828 100.504409790039062 144 110 0
3.65475702285766602 15.3153076171875 102.849723815917969 144 110 0
39.6961326599121094 57.8372230529785156 75.8812103271484375 144 110 0
-23.9347953796386719 71.5230560302734375 80.8026962280273438 144 110 0
-9.27003097534179688 68.114227294921875 83.6305084228515625 144 110 0
-20.5582771301269531 71.7845001220703125 81.87591552734375 144 110 0
-23.2789382934570312 76.8601837158203125 84.4328994750976562 144 110 0
-23.5558547973632812 72.9620590209960938 81.976531982421875 144 110 0
-12.6920347213745117 65.7666244506835938 78.7304840087890625 144 110 0
-25.4697475433349609 72.6061859130859375 81.4635772705078125 144 110 0
-35.7368202209472656 72.1920318603515625 78.4211654663085938 144 110 0
-16.6831531524658203 72.0111618041992188 84.0453033447265625 144 110 0
-39.170318603515625 70.385040283203125 76.9254302978515625 144 110 0
-18.9383506774902344 73.5824127197265625 84.1950454711914062 144 110 0
-12.5531911849975586 63.9140243530273438 77.3736419677734375 144 110 0
-9.90895271301269531 72.55615234375 85.851593017578125 144 110 0
-8.64744377136230469 71.6339187622070312 85.9705657958984375 144 110 0
-28.5953865051269531 71.708282470703125 79.846771240234375 144 110 0
-28.2821865081787109 73.6896514892578125 80.7194061279296875 144 110 0
-27.0327033996582031 48.1711196899414062 75.0504989624023438 144 110 0
-31.6758193969726562 54.326507568359375 76.3581161499023438 144 110 0
-14.2985153198242188 74.6703948974609375 85.7724151611328125 144 110 0
