ply
format ascii 1.0
element vertex 10
property float x
property float y
property float z
property uchar red
property uchar green
property uchar blue
end_header
43.3690185546875 58.7737808227539062 72.3688812255859375 96 158 0
43.127899169921875 56.6878814697265625 73.1673126220703125 96 158 0
55.6889991760253906 48.1450424194335938 56.2848320007324219 96 158 0
8.59689140319824219 20.0710067749023438 114.449203491210938 96 158 0
-11.1896934509277344 24.3353214263916016 101.164100646972656 96 158 0
44.6060791015625 46.7308731079101562 66.3760986328125 96 158 0
49.9106597900390625 49.0544967651367188 60.913726806640625 96 158 0
44.7937736511230469 56.8456268310546875 70.7275009155273438 96 158 0
47.4766273498535156 48.3619880676269531 63.4496917724609375 96 158 0
60.6474342346191406 47.33465576171875 51.90362548828125 96 158 0
