ply
format ascii 1.0
element vertex 29
property float x
property float y
property float z
property uchar red
property uchar green
property uchar blue
end_header
12.6428279876708984 76.8748626708984375 86.3514022827148438 28 226 0
19.8031978607177734 77.33941650390625 85.531463623046875 28 226 0
3.22480392456054688 66.8579559326171875 86.2147750854492188 28 226 0
-11.0886898040771484 77.027130126953125 86.7165374755859375 28 226 0
-1.58100700378417969 62.1992073059082031 85.4731979370117188 28 226 0
2.20388507843017578 34.7839241027832031 112.955604553222656 28 226 0
15.3525457382202148 79.5074310302734375 85.9213943481445312 28 226 0
5.63390922546386719 69.9807891845703125 86.3273391723632812 28 226 0
5.99375581741333008 73.3134536743164062 86.8643875122070312 28 226 0
3.03811311721801758 73.706085205078125 87.1341323852539062 28 226 0
14.519068717956543 77.058990478515625 86.2645339965820312 28 226 0
-11.176335334777832 79.003753662109375 86.75811767578125 28 226 0
-5.67706108093261719 84.96380615234375 86.2351455688476562 28 226 0
1.58430004119873047 82.910064697265625 86.52978515625 28 226 0
33.0860862731933594 63.1610031127929688 77.1040420532226562 28 226 0
8.17124652862548828 82.4044189453125 86.5157546997070312 28 226 0
7.74984598159790039 77.1136016845703125 86.9328765869140625 28 226 0
-4.08661985397338867 74.9784317016601562 86.99749755859375 28 226 0
-27.0003280639648438 68.2388381958007812 79.2324295043945312 28 226 0
0.713828980922698975 70.428802490234375 86.4238510131835938 28 226 0
-6.99658489227294922 73.9646987915039062 86.6468505859375 28 226 0
1.21283602714538574 78.7577896118164062 87.1108551025390625 28 226 0
-6.47450590133666992 80.6655654907226562 86.9340896606445312 28 226 0
18.5136547088623047 78.009735107421875 85.4613265991210938 28 226 0
0.375936001539230347 76.0168228149414062 87.1658248901367188 28 226 0
32.7732086181640625 66.0087509155273438 76.7896194458007812 28 226 0
34.2195358276367188 60.8620223999023438 76.5620193481445312 28 226 0
-8.19135761260986328 77.7860031127929688 87.0197982788085938 28 226 0
14.440394401550293 74.0706024169921875 85.754180908203125 28 226 0
