ply
format ascii 1.0
element vertex 5
property float x
property float y
property float z
property uchar red
property uchar green
property uchar blue
end_header
8.56978797912597656 39.4669914245605469 108.767929077148438 60 194 0
7.8683009147644043 49.3289794921875 100.848350524902344 60 194 0
7.41087198257446289 45.9048080444335938 103.806892395019531 60 194 0
-13.2108726501464844 24.6323471069335938 96.97906494140625 60 194 0
22.4529666900634766 56.3211898803710938 74.2383193969726562 60 194 0
