ply
format ascii 1.0
element vertex 6
property float x
property float y
property float z
property uchar red
property uchar green
property uchar blue
end_header
51.3551025390625 48.2941970825195312 60.1050834655761719 86 168 0
58.2341232299804688 44.5857391357421875 54.9575653076171875 86 168 0
6.16484880447387695 26.9864673614501953 116.096153259277344 86 168 0
1.11972403526306152 -63.376251220703125 80.4924087524414062 86 168 0
-57.9229202270507812 23.8897762298583984 64.0260391235351562 86 168 0
49.2227973937988281 28.7794151306152344 75.6608352661132812 86 168 0
