ply
format ascii 1.0
element vertex 5
property float x
property float y
property float z
property uchar red
property uchar green
property uchar blue
end_header
-14.6158161163330078 33.5496025085449219 89.56976318359375 217 37 0
-11.0764760971069336 16.5229740142822266 91.569580078125 217 37 0
42.8855133056640625 -52.7763748168945312 56.5217552185058594 217 37 0
29.2577342987060547 -2.56128811836242676 88.4992904663085938 217 37 0
-5.57910490036010742 18.2211532592773438 94.707916259765625 217 37 0
