ply
format ascii 1.0
element vertex 5
property float x
property float y
property float z
property uchar red
property uchar green
property uchar blue
end_header
1.216217041015625 1.58576500415802002 107.310096740722656 76 178 0
22.6993427276611328 26.5386104583740234 92.7598190307617188 76 178 0
24.0121669769287109 77.5477142333984375 84.1648788452148438 76 178 0
-7.10836601257324219 -59.9126319885253906 83.3429641723632812 76 178 0
-53.1307334899902344 34.7399368286132812 67.6044387817382812 76 178 0
