ply
format ascii 1.0
element vertex 30
property float x
property float y
property float z
property uchar red
property uchar green
property uchar blue
end_header
-1.12772297859191895 9.09274005889892578 100.59033203125 137 117 0
-0.0565190017223358154 5.88248777389526367 103.335289001464844 137 117 0
0.536772012710571289 8.01113224029541016 102.118560791015625 137 117 0
-6.24322319030761719 9.43458366394042969 97.7241592407226562 137 117 0
-5.25171089172363281 6.30201196670532227 100.710823059082031 137 117 0
-13.1138896942138672 3.6902620792388916 99.6746597290039062 137 117 0
-10.1354589462280273 3.29019808769226074 100.904678344726562 137 117 0
-13.2380819320678711 11.5757951736450195 94.4869384765625 137 117 0
-11.2564153671264648 12.2282190322875977 94.437225341796875 137 117 0
-7.02236413955688477 1.87974298000335693 103.193901062011719 137 117 0
-3.48608803749084473 12.5174312591552734 96.1552047729492188 137 117 0
-6.46531820297241211 3.47849488258361816 102.646842956542969 137 117 0
-8.80336475372314453 7.38725519180297852 98.69647216796875 137 117 0
-17.6303424835205078 3.49988293647766113 97.9738540649414062 137 117 0
-0.176462993025779724 10.866297721862793 99.0217666625976562 137 117 0
-19.3535842895507812 4.67537021636962891 96.5733413696289062 137 117 0
-16.8773689270019531 7.45421695709228516 95.9285507202148438 137 117 0
-8.01408481597900391 10.7908010482788086 96.0132904052734375 137 117 0
43.5246315002441406 23.1236305236816406 81.864044189453125 137 117 0
6.76785182952880859 -56.0019264221191406 88.3542861938476562 137 117 0
-6.52693080902099609 12.0767946243286133 95.0861892700195312 137 117 0
4.2315521240234375 8.63777828216552734 102.755279541015625 137 117 0
3.2004859447479248 9.99530410766601562 100.535545349121094 137 117 0
-2.58147907257080078 0.773301005363464355 106.758514404296875 137 117 0
-2.79763293266296387 10.7917451858520508 97.929412841796875 137 117 0
0.223890006542205811 3.52619099617004395 106.182991027832031 137 117 0
4.32110309600830078 5.74999618530273438 105.1573486328125 137 117 0
-7.89315509796142578 14.0369319915771484 93.12506103515625 137 117 0
-5.54857587814331055 14.2508258819580078 94.3808517456054688 137 117 0
-8.23571872711181641 14.8971109390258789 92.5302352905273438 137 117 0
