ply
format ascii 1.0
element vertex 5
property float x
property float y
property float z
property uchar red
property uchar green
property uchar blue
end_header
17.6652240753173828 -16.1270523071289062 102.083602905273438 242 12 0
16.3344573974609375 -6.44979286193847656 98.1082687377929688 242 12 0
11.1463422775268555 18.7452316284179688 110.626693725585938 242 12 0
6.31881999969482422 12.8934259414672852 99.858306884765625 242 12 0
65.080657958984375 -20.0192584991455078 37.3930549621582031 242 12 0
