ply
format ascii 1.0
element vertex 26
property float x
property float y
property float z
property uchar red
property uchar green
property uchar blue
end_header
12.1512422561645508 53.314544677734375 88.2551498413085938 113 141 0
15.4815521240234375 37.3836288452148438 96.1026611328125 113 141 0
12.0782155990600586 40.07733154296875 101.921783447265625 113 141 0
17.4082813262939453 43.3563575744628906 88.6112289428710938 113 141 0
21.2158660888671875 27.7222156524658203 98.1060714721679688 113 141 0
11.1107177734375 57.8120613098144531 84.6901779174804688 113 141 0
9.86863231658935547 59.4550590515136719 85.996917724609375 113 141 0
15.3400650024414062 40.3885269165039062 93.99798583984375 113 141 0
10.3506755828857422 52.1971359252929688 94.5127029418945312 113 141 0
12.9410123825073242 51.1918182373046875 89.1341629028320312 113 141 0
17.1279048919677734 35.1151542663574219 92.96551513671875 113 141 0
9.17829322814941406 42.8440017700195312 104.661865234375 113 141 0
47.5106048583984375 79.0208511352539062 70.67816162109375 113 141 0
14.0106592178344727 46.5219383239746094 92.0206527709960938 113 141 0
14.5007801055908203 25.4808845520019531 112.811187744140625 113 141 0
14.9105472564697266 51.0379638671875 81.7386016845703125 113 141 0
9.31486320495605469 49.7850456237792969 98.8615646362304688 113 141 0
13.803950309753418 43.5884284973144531 94.6298828125 113 141 0
11.8828163146972656 36.8871116638183594 107.210098266601562 113 141 0
10.4159536361694336 47.0825691223144531 99.1559829711914062 113 141 0
15.7560977935791016 30.6003627777099609 108.790580749511719 113 141 0
19.7954597473144531 32.7615470886230469 88.3043136596679688 113 141 0
16.4047489166259766 46.7708168029785156 86.2472610473632812 113 141 0
17.29156494140625 29.8980560302734375 106.350746154785156 113 141 0
12.9954929351806641 54.9095306396484375 81.1068878173828125 113 141 0
10.787938117980957 43.7226524353027344 100.80731201171875 113 141 0
