ply
format ascii 1.0
element vertex 6
property float x
property float y
property float z
property uchar red
property uchar green
property uchar blue
end_header
14.0705623626708984 5.97306013107299805 103.874618530273438 212 42 0
21.6055355072021484 -5.88846206665039062 96.745941162109375 212 42 0
-37.2270355224609375 53.9724998474121094 73.3705215454101562 212 42 0
-38.8669700622558594 53.7216873168945312 72.5712051391601562 212 42 0
21.1557769775390625 -8.74976253509521484 99.0996170043945312 212 42 0
11.3337974548339844 -6.09847879409790039 102.695602416992188 212 42 0
