ply
format ascii 1.0
element vertex 11
property float x
property float y
property float z
property uchar red
property uchar green
property uchar blue
end_header
23.4372444152832031 21.3083782196044922 82.7310867309570312 79 175 0
37.3227310180664062 21.7315673828125 84.8891448974609375 79 175 0
26.2884178161621094 18.6993122100830078 82.5785675048828125 79 175 0
33.615264892578125 26.7686920166015625 85.1245956420898438 79 175 0
15.8835592269897461 83.6092453002929688 85.2275466918945312 79 175 0
4.0504150390625 25.2451534271240234 116.256629943847656 79 175 0
23.687957763671875 79.902801513671875 83.9977188110351562 79 175 0
22.3116912841796875 83.5777359008789062 83.6451797485351562 79 175 0
29.8047332763671875 30.1354541778564453 85.2462539672851562 79 175 0
28.8292217254638672 14.1047983169555664 82.7402496337890625 79 175 0
34.5562095642089844 7.46602392196655273 82.126068115234375 79 175 0
