ply
format ascii 1.0
element vertex 5
property float x
property float y
property float z
property uchar red
property uchar green
property uchar blue
end_header
18.7049980163574219 41.3745155334472656 88.3853530883789062 117 137 0
-56.4568061828613281 50.9367637634277344 56.4474678039550781 117 137 0
2.70427703857421875 51.9948081970214844 99.532928466796875 117 137 0
13.8658294677734375 29.8015460968017578 111.792137145996094 117 137 0
7.58143091201782227 53.2724456787109375 97.2113265991210938 117 137 0
