ply
format ascii 1.0
element vertex 5
property float x
property float y
property float z
property uchar red
property uchar green
property uchar blue
end_header
16.9807548522949219 64.957275390625 78.6117706298828125 203 51 0
16.6649856567382812 61.0670318603515625 75.5869369506835938 203 51 0
0.779645979404449463 -7.48287820816040039 104.030372619628906 203 51 0
-69.1260299682617188 11.4805126190185547 37.2959022521972656 203 51 0
-12.4139823913574219 25.3337421417236328 89.2526397705078125 203 51 0
