ply
format ascii 1.0
element vertex 7
property float x
property float y
property float z
property uchar red
property uchar green
property uchar blue
end_header
7.97699785232543945 0.401349008083343506 106.038414001464844 202 52 0
13.4955234527587891 -26.0681381225585938 93.59674072265625 202 52 0
11.7633857727050781 -30.7128562927246094 92.7993240356445312 202 52 0
-61.4008331298828125 -18.0180263519287109 37.8438377380371094 202 52 0
5.07689094543457031 -4.90615320205688477 104.21630859375 202 52 0
40.8069038391113281 54.3038406372070312 74.993988037109375 202 52 0
27.051361083984375 -6.63724803924560547 92.6104736328125 202 52 0
