ply
format ascii 1.0
element vertex 6
property float x
property float y
property float z
property uchar red
property uchar green
property uchar blue
end_header
-3.98218798637390137 24.6903285980224609 110.713340759277344 230 24 0
-7.42171716690063477 25.0060462951660156 106.731529235839844 230 24 0
-6.73995208740234375 22.4599971771240234 94.4014739990234375 230 24 0
-6.15062284469604492 22.8409881591796875 94.8039474487304688 230 24 0
0.523070991039276123 19.2026939392089844 102.236724853515625 230 24 0
0.0417080000042915344 17.0953330993652344 101.154640197753906 230 24 0
