ply
format ascii 1.0
element vertex 5
property float x
property float y
property float z
property uchar red
property uchar green
property uchar blue
end_header
3.42170095443725586 17.5586051940917969 110.618415832519531 239 15 0
-9.19925308227539062 23.0581798553466797 100.88873291015625 239 15 0
27.5544528961181641 -16.0259990692138672 89.413726806640625 239 15 0
-14.7100925445556641 24.0007648468017578 88.9279251098632812 239 15 0
7.83561182022094727 16.5182685852050781 107.553756713867188 239 15 0
