ply
format ascii 1.0
element vertex 37
property float x
property float y
property float z
property uchar red
property uchar green
property uchar blue
end_header
-16.3284473419189453 39.6248130798339844 85.3807830810546875 43 211 0
-10.8930635452270508 48.97528076171875 82.198028564453125 43 211 0
-8.44487190246582031 28.3076438903808594 105.282508850097656 43 211 0
-8.39385890960693359 50.7094345092773438 85.2800140380859375 43 211 0
-4.28187894821166992 53.6936988830566406 88.8253631591796875 43 211 0
-10.4959516525268555 46.2382698059082031 87.5942459106445312 43 211 0
-7.00581121444702148 35.5756492614746094 99.4743194580078125 43 211 0
-1.00223898887634277 52.6802902221679688 96.045257568359375 43 211 0
-14.2747335433959961 40.3311119079589844 87.6732025146484375 43 211 0
-0.454735994338989258 57.7041778564453125 90.72637939453125 43 211 0
-3.75996088981628418 36.58477783203125 105.656967163085938 43 211 0
-2.07292890548706055 56.8018150329589844 89.27825927734375 43 211 0
-6.14268779754638672 39.3526535034179688 99.1999588012695312 43 211 0
-1.41420304775238037 39.6469650268554688 106.48779296875 43 211 0
-3.80280208587646484 57.04571533203125 85.6933212280273438 43 211 0
-6.91485691070556641 54.4011917114257812 82.1131973266601562 43 211 0
-13.1502866744995117 50.1340904235839844 77.1020660400390625 43 211 0
-11.5015897750854492 51.7286338806152344 77.3976669311523438 43 211 0
-10.6248960494995117 42.8263130187988281 91.0455093383789062 43 211 0
-6.11323881149291992 48.7116012573242188 91.569000244140625 43 211 0
-4.41590404510498047 44.146575927734375 97.3042831420898438 43 211 0
-11.4305782318115234 27.7523365020751953 100.465843200683594 43 211 0
-17.4237575531005859 40.6605682373046875 82.4426345825195312 43 211 0
-6.74907302856445312 33.0038414001464844 101.951362609863281 43 211 0
-13.0312471389770508 47.9951629638671875 80.0700302124023438 43 211 0
-9.57699871063232422 34.4675559997558594 95.5633468627929688 43 211 0
-7.47873783111572266 40.6427726745605469 96.0000152587890625 43 211 0
-9.8094024658203125 32.6074981689453125 96.82171630859375 43 211 0
-5.26983880996704102 32.7193756103515625 106.061882019042969 43 211 0
-13.2598686218261719 45.6534767150878906 82.47686767578125 43 211 0
-4.77768802642822266 29.7770919799804688 109.725059509277344 43 211 0
-6.259918212890625 30.4890632629394531 106.635848999023438 43 211 0
22.6187095642089844 51.9636955261230469 72.8369598388671875 43 211 0
1.31039798259735107 25.9165096282958984 115.704216003417969 43 211 0
-0.838549017906188965 45.7439231872558594 101.858932495117188 43 211 0
-9.67069339752197266 38.571533203125 94.1864471435546875 43 211 0
-2.2927091121673584 59.7209739685058594 86.23236083984375 43 211 0
