ply
format ascii 1.0
element vertex 7
property float x
property float y
property float z
property uchar red
property uchar green
property uchar blue
end_header
25.29290771484375 68.2261276245117188 77.7712326049804688 197 57 0
20.5316677093505859 64.6977767944335938 76.0875930786132812 197 57 0
45.5591087341308594 69.29290771484375 73.3619232177734375 197 57 0
15.0809154510498047 69.8156661987304688 83.9896774291992188 197 57 0
39.3111801147460938 -56.9928970336914062 55.8973312377929688 197 57 0
-63.0706558227539062 -12.1597146987915039 37.9468650817871094 197 57 0
37.0536346435546875 54.4593315124511719 76.1816329956054688 197 57 0
